<svg width="89" height="40" viewBox="0 0 89 40" fill="currentColor" xmlns="http://www.w3.org/2000/svg">
    <path
        d="M72.4093 8.57368H67.4083V13.5693H72.4093C73.5963 13.5693 74.5513 14.5361 74.5513 15.7161C74.5513 16.9043 73.5963 17.8591 72.4093 17.8591H67.4083V22.8591H72.4093C76.3558 22.8591 79.5525 19.6593 79.5525 15.7161C79.5525 11.7719 76.3558 8.57368 72.4093 8.57368ZM43.909 35.0087C49.8954 35.0087 55.0547 31.5028 57.4648 26.429H63.8396V35.0087H67.4083V26.429H72.4093C78.3307 26.429 83.1276 21.632 83.1276 15.7161C83.1276 9.79878 78.3307 5 72.4093 5H63.8396V17.8591H58.7537C57.7164 10.5919 51.4654 5 43.909 5H26.3221L8.82812 35.0087H13.0014L18.0014 26.429H35.9792V35.0087H43.909ZM88.1287 15.7161C88.1287 24.3946 81.0899 31.429 72.4093 31.429V40H58.8405V33.3138C55.1698 37.4175 49.8454 40 43.909 40H30.9783V31.429H20.8719L15.8719 40H0L23.3301 0H43.909C49.8454 0 55.1698 2.58957 58.8405 6.69379V0H72.4093C81.0899 0 88.1287 7.04 88.1287 15.7161ZM30.9783 8.57368V17.8591H23.0014L20.0879 22.8591H35.9792V8.57368H30.9783ZM55.3413 20C55.3413 26.3129 50.2208 31.429 43.909 31.429H39.5501V26.429H43.909C47.4626 26.429 50.3422 23.5547 50.3422 20C50.3422 16.4529 47.4626 13.5693 43.909 13.5693H39.5501V8.57368H43.909C50.2208 8.57368 55.3413 13.6898 55.3413 20Z" />
    <path
        d="M72.4093 8.57368H67.4083V13.5693H72.4093C73.5963 13.5693 74.5513 14.5361 74.5513 15.7161C74.5513 16.9043 73.5963 17.8591 72.4093 17.8591H67.4083V22.8591H72.4093C76.3558 22.8591 79.5525 19.6593 79.5525 15.7161C79.5525 11.7719 76.3558 8.57368 72.4093 8.57368ZM43.909 35.0087C49.8954 35.0087 55.0547 31.5028 57.4648 26.429H63.8396V35.0087H67.4083V26.429H72.4093C78.3307 26.429 83.1276 21.632 83.1276 15.7161C83.1276 9.79878 78.3307 5 72.4093 5H63.8396V17.8591H58.7537C57.7164 10.5919 51.4654 5 43.909 5H26.3221L8.82812 35.0087H13.0014L18.0014 26.429H35.9792V35.0087H43.909ZM88.1287 15.7161C88.1287 24.3946 81.0899 31.429 72.4093 31.429V40H58.8405V33.3138C55.1698 37.4175 49.8454 40 43.909 40H30.9783V31.429H20.8719L15.8719 40H0L23.3301 0H43.909C49.8454 0 55.1698 2.58957 58.8405 6.69379V0H72.4093C81.0899 0 88.1287 7.04 88.1287 15.7161ZM30.9783 8.57368V17.8591H23.0014L20.0879 22.8591H35.9792V8.57368H30.9783ZM55.3413 20C55.3413 26.3129 50.2208 31.429 43.909 31.429H39.5501V26.429H43.909C47.4626 26.429 50.3422 23.5547 50.3422 20C50.3422 16.4529 47.4626 13.5693 43.909 13.5693H39.5501V8.57368H43.909C50.2208 8.57368 55.3413 13.6898 55.3413 20Z" />
    <path
        d="M72.4093 8.57368H67.4083V13.5693H72.4093C73.5963 13.5693 74.5513 14.5361 74.5513 15.7161C74.5513 16.9043 73.5963 17.8591 72.4093 17.8591H67.4083V22.8591H72.4093C76.3558 22.8591 79.5525 19.6593 79.5525 15.7161C79.5525 11.7719 76.3558 8.57368 72.4093 8.57368ZM43.909 35.0087C49.8954 35.0087 55.0547 31.5028 57.4648 26.429H63.8396V35.0087H67.4083V26.429H72.4093C78.3307 26.429 83.1276 21.632 83.1276 15.7161C83.1276 9.79878 78.3307 5 72.4093 5H63.8396V17.8591H58.7537C57.7164 10.5919 51.4654 5 43.909 5H26.3221L8.82812 35.0087H13.0014L18.0014 26.429H35.9792V35.0087H43.909ZM88.1287 15.7161C88.1287 24.3946 81.0899 31.429 72.4093 31.429V40H58.8405V33.3138C55.1698 37.4175 49.8454 40 43.909 40H30.9783V31.429H20.8719L15.8719 40H0L23.3301 0H43.909C49.8454 0 55.1698 2.58957 58.8405 6.69379V0H72.4093C81.0899 0 88.1287 7.04 88.1287 15.7161ZM30.9783 8.57368V17.8591H23.0014L20.0879 22.8591H35.9792V8.57368H30.9783ZM55.3413 20C55.3413 26.3129 50.2208 31.429 43.909 31.429H39.5501V26.429H43.909C47.4626 26.429 50.3422 23.5547 50.3422 20C50.3422 16.4529 47.4626 13.5693 43.909 13.5693H39.5501V8.57368H43.909C50.2208 8.57368 55.3413 13.6898 55.3413 20Z" />
</svg>