<svg width="218" height="40" viewBox="0 0 218 40" fill="currentColor" xmlns="http://www.w3.org/2000/svg">
    <path d="M19.9929 0L0 40H6.23025L23.1246 5.47464L19.9929 0Z" />
    <path d="M11.5623 35.1289L40.0808 35.1337L36.9871 29.7256H14.1666L11.5623 35.1289Z" />
    <path d="M24.4933 7.86981L21.4613 14.0668L29.6828 27.4587H35.6944L24.4933 7.86981Z" />
    <path
        d="M47.4848 15.0125V0.0760498H52.9737C54.3329 0.0760498 55.4925 0.499003 56.4477 1.34491C57.4076 2.19082 57.8876 3.23632 57.8876 4.47667C57.8876 5.60296 57.4266 6.44411 56.5047 7.00488C57.208 7.27101 57.8163 7.75099 58.3248 8.44007C58.8381 9.12916 59.0947 9.8515 59.0947 10.6119C59.0947 11.8522 58.6195 12.8977 57.6642 13.7436C56.7138 14.5895 55.5637 15.0125 54.2188 15.0125H47.4848ZM54.2283 5.80256C54.5753 5.46514 54.7463 5.0707 54.7463 4.61924C54.7463 4.11549 54.5753 3.67353 54.2283 3.2981C53.8862 2.92267 53.468 2.73733 52.9737 2.73733H50.6071V6.31105H52.9737C53.4632 6.31105 53.8814 6.14472 54.2283 5.80256ZM55.5067 11.7857C55.8299 11.4103 55.9914 10.9683 55.9914 10.4645C55.9914 10.0131 55.8251 9.61864 55.4877 9.28123C55.155 8.94382 54.7558 8.77273 54.2996 8.77273H50.6024V12.3465H54.3186C54.7844 12.3465 55.1788 12.1564 55.502 11.7809L55.5067 11.7857Z" />
    <path
        d="M61.9983 13.8387C60.9386 12.8977 60.4063 11.8047 60.4063 10.5596V0.0760498H63.5286V10.0368C63.5286 10.7734 63.7995 11.3627 64.346 11.8047C64.8925 12.2467 65.5863 12.4653 66.437 12.4653C67.1546 12.4653 67.8199 12.2657 68.4329 11.8617C69.046 11.4578 69.3549 10.8495 69.3549 10.0368V0.0760498H72.4676V10.5596C72.4676 11.8855 71.9069 12.9975 70.7853 13.8957C69.6638 14.7939 68.2143 15.2454 66.4417 15.2454C64.5456 15.2454 63.0629 14.7749 62.0031 13.8339L61.9983 13.8387Z" />
    <path d="M74.8105 15.0125V0.0760498H77.9328V15.0125H74.8105Z" />
    <path d="M90.474 15.0125H80.2756V0.0760498H83.3979V12.3512H90.474V15.0125Z" />
    <path
        d="M91.8855 15.0125V0.0760498H97.1082C99.2705 0.0760498 101.119 0.80315 102.649 2.2621C104.18 3.72105 104.945 5.4794 104.945 7.53714C104.945 9.59488 104.18 11.358 102.649 12.8217C101.119 14.2806 99.2753 15.0125 97.1082 15.0125H91.8855ZM100.435 10.9445C101.357 10.0036 101.818 8.87253 101.818 7.54189C101.818 6.21125 101.357 5.08496 100.44 4.14876C99.5224 3.20781 98.4104 2.74208 97.1082 2.74208H95.0077V12.356H97.1082C98.4056 12.356 99.5129 11.8855 100.435 10.9493V10.9445Z" />
    <path
        d="M106.622 15.0125V0.0760498H116.859V2.73733H109.745V6.31105H115.652V8.77749H109.745V12.3512H116.859V15.0125H106.622Z" />
    <path
        d="M138.059 15.4545C136.852 15.4545 135.668 15.1978 134.518 14.6798C133.363 14.1666 132.484 13.4442 131.876 12.5128L133.934 10.5976C134.361 11.2249 134.974 11.7287 135.759 12.1041C136.547 12.4795 137.313 12.6649 138.059 12.6649C138.805 12.6649 139.418 12.508 139.903 12.1944C140.387 11.8807 140.63 11.4673 140.63 10.954C140.63 10.6214 140.487 10.322 140.202 10.0606C139.917 9.79923 139.465 9.57587 138.852 9.39053L135.331 8.32602C134.433 8.04564 133.706 7.61318 133.159 7.02389C132.613 6.43936 132.342 5.63147 132.342 4.60973C132.342 3.35988 132.902 2.29062 134.019 1.40669C135.136 0.518012 136.486 0.0760498 138.063 0.0760498C139.247 0.0760498 140.302 0.270894 141.233 0.655829C142.165 1.04076 142.963 1.6348 143.624 2.44269L141.381 4.30559C141.034 3.8256 140.592 3.46443 140.055 3.22206C139.518 2.9797 138.886 2.85614 138.154 2.85614C137.555 2.85614 137.018 3.01296 136.552 3.33137C136.087 3.64977 135.849 4.06322 135.849 4.57647C135.844 4.90437 135.925 5.17525 136.096 5.39386C136.267 5.61246 136.528 5.77404 136.875 5.87384L140.867 7.12369C141.899 7.43259 142.697 7.89356 143.262 8.51611C143.828 9.13866 144.118 9.93705 144.132 10.9208C144.132 12.1706 143.552 13.2399 142.393 14.1238C141.233 15.0125 139.789 15.4545 138.063 15.4545H138.059Z" />
    <path
        d="M180.145 13.8387C179.085 12.8977 178.553 11.8047 178.553 10.5596V0.0760498H181.675V10.0368C181.675 10.7734 181.946 11.3627 182.493 11.8047C183.039 12.2467 183.733 12.4653 184.584 12.4653C185.301 12.4653 185.966 12.2657 186.58 11.8617C187.193 11.4578 187.501 10.8495 187.501 10.0368V0.0760498H190.614V10.5596C190.614 11.8855 190.053 12.9975 188.932 13.8957C187.81 14.7939 186.361 15.2454 184.588 15.2454C182.692 15.2454 181.209 14.7749 180.15 13.8339L180.145 13.8387Z" />
    <path
        d="M197.985 15.4545C196.778 15.4545 195.595 15.1978 194.445 14.6798C193.29 14.1666 192.411 13.4442 191.802 12.5128L193.86 10.5976C194.288 11.2249 194.901 11.7287 195.685 12.1041C196.474 12.4795 197.239 12.6649 197.985 12.6649C198.731 12.6649 199.344 12.508 199.829 12.1944C200.314 11.8807 200.556 11.4673 200.556 10.954C200.556 10.6214 200.413 10.322 200.128 10.0606C199.843 9.79923 199.392 9.57587 198.779 9.39053L195.257 8.32602C194.359 8.04564 193.632 7.61318 193.085 7.02389C192.539 6.43936 192.268 5.63147 192.268 4.60973C192.268 3.35988 192.829 2.29062 193.946 1.40669C195.062 0.518012 196.412 0.0760498 197.99 0.0760498C199.173 0.0760498 200.228 0.270894 201.16 0.655829C202.091 1.04076 202.889 1.6348 203.55 2.44269L201.307 4.30559C200.96 3.8256 200.518 3.46443 199.981 3.22206C199.444 2.9797 198.812 2.85614 198.08 2.85614C197.481 2.85614 196.944 3.01296 196.479 3.33137C196.013 3.64977 195.775 4.06322 195.775 4.57647C195.77 4.90437 195.851 5.17525 196.022 5.39386C196.193 5.61246 196.455 5.77404 196.802 5.87384L200.794 7.12369C201.825 7.43259 202.623 7.89356 203.189 8.51611C203.754 9.13866 204.044 9.93705 204.058 10.9208C204.058 12.1706 203.479 13.2399 202.319 14.1238C201.16 15.0125 199.715 15.4545 197.99 15.4545H197.985Z" />
    <path
        d="M132.057 14.9935L129.628 11.9473L127.542 9.30974C128.445 8.99609 129.205 8.50185 129.832 7.83178C130.455 7.15696 130.769 6.197 130.769 4.94714C130.769 3.47869 130.255 2.30012 129.224 1.41144C128.193 0.522765 126.976 0.0760498 125.57 0.0760498H119.078V15.0125H122.2V2.73733H125.365C125.974 2.73733 126.511 2.92267 126.976 3.29335C127.442 3.66403 127.68 4.21529 127.68 4.94714C127.68 5.679 127.447 6.216 126.976 6.59144C126.62 6.87657 126.221 7.04766 125.779 7.11419C125.646 7.1332 125.503 7.14745 125.361 7.14745H122.414L125.147 10.5739L128.682 15.0077H132.057L132.047 14.9935L132.057 14.984V14.9935Z" />
    <path
        d="M178.254 14.9935L175.825 11.9473L173.739 9.30974C174.642 8.99609 175.402 8.50185 176.029 7.83178C176.652 7.15696 176.966 6.197 176.966 4.94714C176.966 3.47869 176.452 2.30012 175.421 1.41144C174.39 0.522765 173.173 0.0760498 171.767 0.0760498H165.275V15.0125H168.397V2.73733H171.562C172.171 2.73733 172.708 2.92267 173.173 3.29335C173.639 3.66403 173.877 4.21529 173.877 4.94714C173.877 5.679 173.644 6.216 173.173 6.59144C172.817 6.87657 172.418 7.04766 171.976 7.11419C171.843 7.1332 171.7 7.14745 171.558 7.14745H168.611L171.344 10.5739L174.879 15.0077H178.254L178.244 14.9935L178.254 14.984V14.9935Z" />
    <path d="M156.051 15.0125V2.72783H151.574L150.543 0.0760498H163.645V2.72783H159.173V15.0125H156.051Z" />
    <path d="M209.006 15.0125V2.72783H204.534V0.0760498H217.636L216.604 2.72783H212.128V15.0125H209.006Z" />
    <path
        d="M54.9602 34.6157C52.7029 34.6157 50.8305 33.8648 49.3525 32.3631C47.8698 30.8614 47.1332 29.046 47.1332 26.917C47.1332 24.7879 47.8745 22.9821 49.3525 21.4756C50.8305 19.9691 52.7029 19.2183 54.9602 19.2183C57.0892 19.2183 58.9094 19.9644 60.4158 21.4613L58.3058 23.4906C57.3791 22.5639 56.2623 22.0981 54.9555 22.0981C53.6486 22.0981 52.5413 22.5686 51.6574 23.5096C50.7782 24.4505 50.3362 25.5863 50.3362 26.917C50.3362 28.2476 50.7734 29.3929 51.6574 30.3386C52.5365 31.2796 53.6343 31.75 54.9555 31.75C56.2766 31.75 57.3744 31.2843 58.3058 30.3576L60.4158 32.3869C58.9094 33.8743 57.0892 34.6204 54.9602 34.6204V34.6157Z" />
    <path
        d="M79.1351 34.1547H76.0033V19.2183H82.495C83.9016 19.2183 85.123 19.665 86.1542 20.5537C87.1902 21.4423 87.7035 22.6209 87.7035 24.0894C87.7035 25.5578 87.1997 26.6746 86.1922 27.587C85.1847 28.4995 83.9539 28.9557 82.4902 28.9557H79.1303V34.1547H79.1351ZM82.3001 26.2944C82.9084 26.2944 83.4454 26.1091 83.9111 25.7384C84.3769 25.3677 84.6145 24.8165 84.6145 24.0941C84.6145 23.3718 84.3816 22.811 83.9111 22.4403C83.4454 22.0696 82.9084 21.8843 82.3001 21.8843H79.1351V26.2992H82.3001V26.2944Z" />
    <path d="M89.324 34.1547V19.2183H92.4462V34.1547H89.324Z" />
    <path d="M98.5482 34.1547V21.87H94.0763V19.2183H107.178L106.147 21.87H101.67V34.1547H98.5482Z" />
    <path d="M129.272 34.1547H119.073V19.2183H122.196V31.4934H129.272V34.1547Z" />
    <path
        d="M70.2863 30.7711H65.534L64.3365 34.2545H60.6867L66.8409 19.2183H68.9842L75.1384 34.2545H71.4792L70.2816 30.7711H70.2863ZM69.4404 28.3284L67.9054 23.7757L66.3799 28.3284H69.4404Z" />
    <path
        d="M112.862 30.7711H108.11L106.912 34.2545H103.262L109.417 19.2183H111.56L117.714 34.2545H114.055L112.857 30.7711H112.862ZM112.016 28.3284L110.481 23.7757L108.956 28.3284H112.016Z" />
</svg>