<svg viewBox="0 0 150 229" fill="currentColor" xmlns="http://www.w3.org/2000/svg">
    <path
        d="M0 168.601H37.4587C40.0421 186.168 55.2839 196.243 74.1424 196.243C95.3259 196.243 110.051 182.034 110.568 163.176H43.1421L23.1022 134.5L101.268 134.242H149.318C155.002 187.976 124.776 228.018 72.8507 228.018C35.392 228.018 2.32502 205.026 0 168.601Z"
        fill="currentColor" />
    <path fill-rule="evenodd" clip-rule="evenodd"
        d="M72.1711 135.106C103.381 135.106 128.682 110.935 128.682 81.1177C128.682 51.3009 103.381 27.1296 72.1711 27.1296C40.961 27.1296 15.6602 51.3009 15.6602 81.1177C15.6602 110.935 40.961 135.106 72.1711 135.106ZM71.8114 104.254C84.2119 104.254 94.2644 94.1446 94.2644 81.6745C94.2644 69.2044 84.2119 59.0953 71.8114 59.0953C59.411 59.0953 49.3584 69.2044 49.3584 81.6745C49.3584 94.1446 59.411 104.254 71.8114 104.254Z"
        fill="currentColor" />
    <path
        d="M81.9184 0.693359C81.9184 19.4935 97.159 34.7341 115.959 34.7341C134.759 34.7341 150 19.4935 150 0.693359H81.9184Z"
        fill="currentColor" />
</svg>