<svg width="150" height="228" viewBox="0 0 150 228" fill="none" xmlns="http://www.w3.org/2000/svg">
<path d="M0 168.14H37.4587C40.0421 185.707 55.2839 195.782 74.1424 195.782C95.3259 195.782 110.051 181.573 110.568 162.715H43.1421L23.1022 134.039L101.268 133.781H149.318C155.002 187.515 124.776 227.557 72.8507 227.557C35.392 227.557 2.32502 204.565 0 168.14Z" fill="#F3BE22"/>
<path fill-rule="evenodd" clip-rule="evenodd" d="M72.1711 134.645C103.381 134.645 128.682 110.474 128.682 80.6568C128.682 50.8399 103.381 26.6686 72.1711 26.6686C40.961 26.6686 15.6602 50.8399 15.6602 80.6568C15.6602 110.474 40.961 134.645 72.1711 134.645ZM71.8114 103.793C84.2119 103.793 94.2644 93.6837 94.2644 81.2136C94.2644 68.7434 84.2119 58.6344 71.8114 58.6344C59.411 58.6344 49.3584 68.7434 49.3584 81.2136C49.3584 93.6837 59.411 103.793 71.8114 103.793Z" fill="#F3BE22"/>
<path d="M81.9184 0.232422C81.9184 19.0326 97.159 34.2731 115.959 34.2731C134.759 34.2731 150 19.0326 150 0.232422H81.9184Z" fill="#F3BE22"/>
</svg>
