<svg width="136" height="40" viewBox="0 0 136 40" fill="currentColor" xmlns="http://www.w3.org/2000/svg">
    <path
        d="M76.7209 8C77.4419 8 78.1395 7.72093 78.6512 7.23256C79.1628 6.74419 79.4651 6.04651 79.4884 5.34884C79.4884 4.62791 79.186 3.93023 78.6744 3.4186C78.1628 2.90698 77.4651 2.60465 76.7442 2.60465C76.0233 2.62791 75.3488 2.90698 74.8372 3.44186C74.3256 3.95349 74.0465 4.65116 74.0698 5.34884C74.0698 6.04651 74.3488 6.72093 74.8605 7.23256C75.3488 7.69767 76.0233 7.97674 76.7209 8ZM95.4651 10.5581H102.116V11.093C101.744 11.1628 101.395 11.2791 101.07 11.4651C100.465 11.7442 99.2558 13.1163 98.3023 15.4186C96.7209 19.3953 95.0698 24.1163 93.3256 29.5116L92.6744 31.5581C92.3953 32.4884 92.1395 33.093 92.0233 33.4419C91.907 33.814 91.7442 34.3721 91.4651 35.0465C91.3023 35.5581 91.093 36.0698 90.8372 36.5349C90.5116 37.1395 89.907 38.3721 89.4186 38.7442C88.6512 39.3954 87.5116 40.1163 86.093 40C83.3256 40 81.2558 37.9535 81.2326 35.5349C81.2326 33.8837 82.2791 32.7907 83.8605 32.7907C85 32.7907 86 33.3954 86 34.6744C86 35.6047 85.0698 36.5581 85.0698 37.0465C85.0698 38.3023 85.7907 38.8837 87.2093 38.8837C88.3488 38.8837 89.2791 38.1628 89.9767 36.7209C90.907 35.0698 91 33.2558 90.2093 31.2326L84.3721 15.8837C83.0232 12.3488 82.0232 11.186 80.7674 11.0465V10.5116H89.9767V11.0465C88.8837 11.1628 88.3256 11.814 88.3256 12.9767C88.3256 13.814 88.6512 15.1163 89.2558 16.7674L90.3488 19.7442C91.6046 22.9767 92.6279 25.7907 93.1395 27.5581C94.3256 23.8837 95.4186 20.6744 96.4651 17.8605C97.2326 15.7674 97.6047 14.2791 97.6047 13.3953C97.6047 11.814 96.7442 11.093 95.4651 11.093V10.5581ZM31.4419 30.1628C30.2558 29.9535 29.2558 28.907 29.2558 26.6977V0L22.5581 1.44186V2C23.6977 1.88372 24.8372 2.88372 24.8372 5.02326V26.6977C24.8372 28.7907 23.6977 30 22.5581 30.1628C22.4419 30.186 22.3488 30.186 22.2326 30.2093C21.6512 30.2558 21.0698 30.1395 20.5349 29.907C19.6279 29.5116 18.8837 28.814 18.2558 27.7907L15.1628 22.8837C14.5116 21.8372 13.5349 21.0465 12.3953 20.6047C11.2558 20.1628 10 20.093 8.81395 20.4186L12.3023 16.5814C14.9302 13.6744 17.3721 11.8372 19.6744 11.0698V10.5349H12V11.0698C13.9767 11.8372 13.8605 13.5349 11.5814 16.186L6.69767 21.8605V0L0 1.44186V2C1.13953 2 2.27907 3.11628 2.27907 5.09302V26.6744C2.27907 29.0698 1.16279 30 0 30.1628V30.6977H8.88372V30.1628C7.4186 29.9535 6.69767 28.8372 6.69767 26.6977V22.7209L8.60465 20.6279L13.2093 28.1628C14.3023 29.9767 15.3256 30.6977 16.9302 30.6977H32.3721V30.2791C32.3953 30.2791 31.9535 30.2558 31.4419 30.1628ZM49.8605 27.6279V18.6047C49.7674 12.7209 47.2791 10.0233 41.5814 10.0233C39.7674 10 38 10.6047 36.5581 11.7209C35.0465 12.8605 34.3256 14.1395 34.3256 15.6279C34.3256 17.0698 35.1395 18.1628 36.4651 18.1628C37.8837 18.1628 38.907 17.3488 38.907 16.2326C38.907 15.3954 38.3488 14.2093 38.3488 13.4186C38.3488 11.9767 39.4419 10.7209 41.3488 10.7209C43.7907 10.7209 45.5349 12.5349 45.5349 16.5581V18.9767L43.5116 19.4651C42.4651 19.6744 41.5581 19.8837 40.8837 20.0698C40.186 20.2791 39.3023 20.5581 38.2558 20.9535C36.1395 21.7674 35.0233 22.5349 34.0465 23.9767C33.5581 24.6744 33.3256 25.5116 33.3256 26.3488C33.3256 29.6977 35.6744 31.2326 38.9535 31.2326C41.5581 31.2326 44.3023 29.8605 45.5581 27.2791C45.5814 28.093 45.7674 28.8837 46.1395 29.6279C47.5116 32.3954 52.0698 30.7674 52.0698 30.7674V30.2326C50.0233 30.5349 49.8605 28.186 49.8605 27.6279ZM45.5349 24.8372C45.5349 26.1628 45.0465 27.2558 44.0698 28.0233C43.1395 28.7907 42.1628 29.186 41.1395 29.186C39.1628 29.186 37.8605 27.907 37.8605 25.5116C37.8605 24.3953 38.4884 23.3488 39 22.7442C39.4186 22.3256 39.8837 21.9767 40.4186 21.7442C41.1163 21.3721 41.4419 21.186 41.9302 20.9767L43.7907 20.3023C44.7209 19.9302 45.2791 19.7442 45.5349 19.6279V24.8372ZM135.116 10.5581H119.349V0H135.116L131.814 5.27907L135.116 10.5581ZM103.047 28.1163C101.093 26.1163 100 23.4186 100.047 20.6047C100.023 19.2326 100.279 17.8605 100.791 16.5814C101.302 15.3023 102.07 14.1395 103.047 13.1395C105.047 11.0465 107.465 10 110.326 10C113.116 10 115.558 11.0465 117.558 13.1395C118.535 14.1163 119.326 15.2791 119.837 16.5581C120.372 17.8372 120.628 19.2093 120.605 20.6047C120.628 22 120.372 23.3721 119.837 24.6512C119.302 25.9302 118.535 27.1163 117.558 28.093C115.558 30.1395 113.14 31.2093 110.326 31.2093C107.488 31.2326 105.047 30.186 103.047 28.1163ZM113.977 13.4884C113.186 11.9302 112.116 11.0233 110.884 10.7674C108.372 10.2558 106.163 12.8372 105.326 16.907C104.977 18.7442 104.884 20.6047 105.07 22.4419C105.256 24.3023 105.767 26.093 106.605 27.7674C107.419 29.3256 108.465 30.2326 109.698 30.4884C112.209 31 114.488 28.3256 115.326 24.2093C116.023 20.7674 115.674 16.5814 113.977 13.4884Z" />
    <path
        d="M79.0698 26.6977V10.5582H64.7907V11.0465C66.6977 11.3256 67.6046 12.7675 66.7442 15.0698C62.2791 27.1163 62.5581 26.5814 62.2791 27.5349C62 26.6047 61.3488 24.3256 60.3023 21.4651C59.2558 18.6047 58.5581 16.721 58.2791 15.8605C57.186 12.5117 57.5581 11.2791 59.3256 11.0698V10.5349H50.0698V11.0698C51.4419 11.3489 52.6744 12.9303 53.6744 15.7442L55.093 19.4186C56.6512 23.3721 58.4884 28.8372 59.093 30.6977H62.1628C63.1628 27.8372 67.1163 16.3954 67.6512 15.2326C68.2326 13.907 68.8837 12.907 69.6046 12.2093C69.9535 11.8372 70.3721 11.5349 70.8605 11.3489C71.3256 11.1628 71.8372 11.0465 72.3488 11.0698C72.3488 11.0698 74.5814 11.0698 74.5814 13.2093V26.721C74.5814 28.9768 73.4884 30.0233 72.3488 30.1861V30.721H81.186V30.1861C80.0465 30 79.0698 28.9535 79.0698 26.6977Z" />
</svg>