<svg width="194" height="40" viewBox="0 0 194 40" fill="currentColor" xmlns="http://www.w3.org/2000/svg">
    <path
        d="M0 0V40H27.6945V0H0ZM22.0749 33.8329H13.2637C12.2478 33.1268 12.0245 32.1542 11.9741 31.7939C11.9669 31.7003 11.9524 31.6426 11.9524 31.6426H19.8919V29.9135H11.5778C11.5778 29.9135 10.7637 29.8919 9.78386 29.5893C8.03314 29.0274 5.61239 27.5648 5.61239 23.6239V6.18156H11.9741V25.8934C11.9741 25.8934 10.6628 25.8429 9.79107 24.5821V7.817H7.80259V23.6167C7.80259 25.3098 8.39337 26.4697 9.59654 27.1542C9.66138 27.183 9.72622 27.219 9.78386 27.2478C10.6628 27.6801 11.513 27.7233 11.5922 27.7233H22.0677V33.8256L22.0749 33.8329Z" />
    <path d="M44.9279 12.2623H42.0389V27.6514H52.4495V25.0001H44.9279V12.2623Z" />
    <path
        d="M74.1498 14.3588C73.4365 13.6528 72.5792 13.0908 71.5994 12.6873C70.6195 12.2839 69.5389 12.075 68.3789 12.075C67.219 12.075 66.1383 12.2839 65.1585 12.6873C64.1786 13.0908 63.3213 13.66 62.608 14.3588C61.8948 15.0649 61.3328 15.9078 60.9366 16.866C60.5403 17.8242 60.3314 18.8761 60.3314 19.9928C60.3314 21.1095 60.5331 22.1398 60.9366 23.098C61.3328 24.0562 61.902 24.8992 62.6152 25.598C63.3285 26.2969 64.1858 26.8516 65.1657 27.2479C66.1455 27.6441 67.2262 27.8458 68.3861 27.8458C69.5461 27.8458 70.6267 27.6441 71.6066 27.2479C72.5864 26.8516 73.4438 26.2969 74.157 25.598C74.8703 24.8992 75.4322 24.0562 75.8357 23.098C76.2319 22.1398 76.4409 21.0951 76.4409 19.9928C76.4409 18.8905 76.2391 17.8242 75.8357 16.866C75.4394 15.9078 74.8775 15.0649 74.1642 14.3588H74.1498ZM73.5374 19.9928C73.5374 20.7421 73.4077 21.4481 73.1484 22.075C72.889 22.7018 72.5288 23.2565 72.0749 23.7176C71.621 24.1787 71.0806 24.5389 70.4538 24.8055C69.2002 25.3242 67.5576 25.3242 66.3112 24.8055C65.6844 24.5461 65.1368 24.1787 64.6757 23.7176C64.2218 23.2565 63.8544 22.709 63.6023 22.0822C63.3501 21.4554 63.2204 20.7565 63.2204 20C63.2204 19.2435 63.3501 18.5375 63.6095 17.8963C63.8688 17.2551 64.2291 16.6931 64.6829 16.2248C65.1296 15.7565 65.6844 15.3891 66.3112 15.1297C66.9452 14.8703 67.6368 14.7335 68.3717 14.7335C69.1066 14.7335 69.7982 14.8631 70.425 15.1297C71.0518 15.3891 71.5994 15.7565 72.0605 16.2248C72.5216 16.6931 72.8818 17.2551 73.1412 17.8963C73.4005 18.5375 73.5302 19.2507 73.5302 20L73.5374 19.9928Z" />
    <path
        d="M96.8156 20.9511C96.8156 22.2767 96.4913 23.3286 95.8573 24.0779C95.2233 24.8272 94.3083 25.1874 93.0764 25.1874C91.8444 25.1874 90.9294 24.8272 90.3026 24.0779C89.6686 23.3286 89.3516 22.2767 89.3516 20.9511V12.2623H86.4697V20.9223C86.4697 22.0318 86.6282 23.0332 86.938 23.8906C87.255 24.7551 87.7017 25.49 88.2781 26.0664C88.8545 26.6499 89.5605 27.0966 90.3746 27.3992C91.1888 27.6946 92.0965 27.8459 93.0836 27.8459C94.0706 27.8459 94.9784 27.6946 95.7925 27.3992C96.6066 27.0966 97.3127 26.6499 97.889 26.0664C98.4654 25.4828 98.9121 24.7551 99.2291 23.8906C99.5389 23.0332 99.6974 22.039 99.6974 20.9223V12.2623H96.8156V20.9511Z" />
    <path
        d="M124.474 12.2623L117.99 23.2422L111.491 12.2623H110.382L109.748 27.6514H112.608L112.925 19.9352L117.478 27.8027H118.509L123.04 19.9569L123.372 27.6514H126.218L125.584 12.2623H124.474Z" />
    <path
        d="M143.177 12.0533H142.262L134.906 27.6513H138.004L142.731 17.2407L144.712 21.6355H142.363L141.304 24.0058H145.785L147.435 27.6513H150.526L148.804 24.0058H150.778V21.6355H147.694L143.177 12.0533Z" />
    <path
        d="M169.69 20.843C170.317 19.9569 170.641 18.8906 170.641 17.6874C170.641 16.8949 170.497 16.16 170.216 15.4972C169.935 14.8416 169.532 14.258 169.02 13.7825C168.509 13.2998 167.896 12.9252 167.19 12.6586C166.484 12.392 165.699 12.2623 164.856 12.2623H159.114V27.6514H161.996V23.1341H164.452L167.882 27.6514H171.333L167.478 22.6226C168.386 22.2335 169.128 21.6355 169.683 20.843H169.69ZM167.687 17.6658C167.687 18.5159 167.421 19.186 166.873 19.7047C166.326 20.2306 165.62 20.4828 164.712 20.4828H161.996V14.9208H164.712C165.605 14.9208 166.333 15.173 166.873 15.6773C167.421 16.1816 167.68 16.8301 167.68 17.673L167.687 17.6658Z" />
    <path
        d="M191.715 23.9409C191.246 24.33 190.706 24.6398 190.101 24.8703C188.869 25.3386 187.277 25.3242 186.03 24.8199C185.389 24.5605 184.827 24.1931 184.352 23.732C183.876 23.2709 183.501 22.7162 183.228 22.0822C182.954 21.4481 182.817 20.7421 182.817 19.9712C182.817 19.2003 182.954 18.4871 183.228 17.853C183.501 17.2118 183.876 16.6499 184.352 16.1888C184.827 15.7277 185.389 15.3675 186.023 15.1153C187.248 14.6254 188.79 14.611 190.072 15.0432C190.677 15.2522 191.225 15.5692 191.7 15.9943L191.945 16.2104L193.35 13.8329L193.17 13.6888C192.558 13.1989 191.816 12.8026 190.965 12.5144C190.115 12.2262 189.157 12.0822 188.12 12.0822C186.952 12.0822 185.857 12.2767 184.863 12.6729C183.869 13.062 182.997 13.6167 182.262 14.3156C181.527 15.0144 180.951 15.8574 180.54 16.8156C180.13 17.7738 179.928 18.8401 179.928 19.9856C179.928 21.1311 180.137 22.1758 180.54 23.1412C180.944 24.1066 181.527 24.9496 182.262 25.6484C182.997 26.3473 183.869 26.8948 184.863 27.2911C185.857 27.6801 186.952 27.8819 188.12 27.8819C189.157 27.8819 190.115 27.7378 190.965 27.4496C191.816 27.1614 192.558 26.7652 193.17 26.2752L193.35 26.1311L191.952 23.7608L191.707 23.9626L191.715 23.9409Z" />
</svg>