<?xml version="1.0" standalone="no"?>
<!DOCTYPE svg PUBLIC "-//W3C//DTD SVG 20010904//EN"
 "http://www.w3.org/TR/2001/REC-SVG-20010904/DTD/svg10.dtd">
<svg version="1.0" xmlns="http://www.w3.org/2000/svg"
 width="912.000000pt" height="912.000000pt" viewBox="0 0 912.000000 912.000000"
 preserveAspectRatio="xMidYMid meet">
<metadata>
Created by potrace 1.14, written by Peter Selinger 2001-2017
</metadata>
<g transform="translate(0.000000,912.000000) scale(0.100000,-0.100000)"
fill="#000000" stroke="none">
<path d="M4838 9104 c-3 -3 -4 -17 -2 -32 2 -15 5 -56 8 -92 13 -171 95 -430
169 -535 12 -16 21 -32 20 -35 -5 -16 175 -243 232 -292 6 -5 26 -22 45 -39
101 -88 265 -186 396 -238 57 -22 218 -66 279 -76 22 -4 108 -8 190 -10 146
-3 255 8 355 35 25 7 50 13 55 15 13 3 39 12 100 36 28 10 56 19 63 19 6 0 12
5 12 10 0 6 7 10 15 10 8 0 54 23 102 51 396 232 651 641 680 1091 l5 88
-1359 0 c-748 0 -1362 -3 -1365 -6z"/>
<path d="M4417 8054 c-1 -1 -51 -4 -112 -8 -130 -7 -192 -14 -271 -30 -12 -2
-37 -7 -55 -10 -19 -3 -61 -13 -94 -21 -33 -9 -71 -18 -84 -21 -103 -22 -377
-137 -506 -212 -119 -69 -287 -185 -293 -203 -2 -5 -7 -9 -12 -9 -28 0 -279
-254 -369 -373 -168 -224 -293 -476 -365 -737 -20 -71 -54 -267 -62 -350 -11
-120 -5 -385 10 -459 3 -12 8 -43 10 -67 8 -64 60 -267 92 -354 41 -115 122
-292 137 -298 4 -2 7 -10 7 -17 0 -11 154 -251 169 -265 4 -3 26 -30 51 -60
76 -96 256 -269 362 -350 11 -8 32 -24 46 -36 15 -11 42 -29 60 -39 17 -11 32
-23 32 -27 0 -4 5 -8 11 -8 6 0 31 -13 54 -29 44 -30 245 -132 320 -163 144
-59 373 -125 443 -127 12 -1 22 -5 22 -9 0 -6 -548 -16 -675 -11 -130 4 -212
3 -208 -3 2 -5 -6 -4 -19 0 -13 5 -36 5 -53 2 -16 -3 -39 -3 -50 0 -11 4 -29
4 -40 0 -11 -4 -31 -4 -45 0 -14 3 -38 3 -55 0 -16 -3 -42 -3 -57 1 -17 5 -28
4 -28 -2 0 -6 -4 -8 -9 -5 -4 3 -32 5 -62 6 -188 0 -242 -2 -234 -8 6 -4 19
-20 31 -37 11 -16 47 -68 79 -115 33 -47 75 -108 95 -136 19 -28 60 -86 90
-129 30 -42 60 -86 66 -96 6 -10 18 -27 27 -37 10 -10 17 -23 17 -29 0 -6 3
-13 8 -15 7 -3 38 -45 128 -175 66 -94 109 -156 167 -238 27 -38 58 -84 69
-102 l19 -32 1347 0 1347 0 -1 -68 c-2 -96 -8 -138 -38 -248 -9 -33 -18 -67
-21 -76 -8 -34 -59 -156 -88 -209 -65 -119 -114 -185 -227 -309 -37 -40 -142
-123 -220 -174 -259 -166 -524 -237 -875 -232 -99 2 -200 5 -225 8 -92 12
-170 26 -181 33 -5 3 -21 7 -36 9 -27 3 -161 46 -213 68 -14 6 -27 11 -30 11
-42 10 -290 157 -298 178 -2 4 -8 8 -14 8 -5 0 -51 42 -102 93 -91 89 -166
190 -219 292 -40 78 -86 192 -93 233 -3 13 -11 49 -19 79 -8 31 -12 59 -10 63
3 4 -1 12 -8 17 -9 7 -1438 11 -1490 4 -8 -1 -6 -42 10 -166 9 -74 11 -90 13
-90 1 0 3 -11 5 -25 11 -81 80 -330 118 -420 5 -14 11 -30 12 -35 2 -6 19 -43
38 -83 20 -40 33 -72 30 -72 -3 0 -1 -6 5 -13 5 -6 25 -39 42 -72 18 -33 50
-86 71 -119 22 -32 39 -60 39 -62 0 -8 125 -170 180 -234 97 -111 188 -198
348 -331 12 -11 27 -19 32 -19 6 0 10 -4 10 -9 0 -5 16 -19 35 -31 20 -12 41
-28 48 -34 18 -19 309 -192 315 -188 2 2 8 0 11 -5 6 -8 225 -113 246 -117 6
-1 27 -10 49 -19 21 -9 44 -17 50 -17 7 0 16 -4 21 -9 6 -6 21 -12 35 -15 14
-3 49 -14 78 -25 29 -11 54 -19 55 -19 1 0 22 -5 47 -12 25 -7 53 -14 62 -16
10 -2 26 -6 36 -8 153 -38 194 -46 202 -41 5 3 11 1 14 -4 3 -4 32 -12 63 -16
32 -4 67 -9 78 -11 11 -2 40 -6 65 -9 25 -3 63 -7 85 -9 217 -23 501 -24 720
-1 105 11 152 16 175 20 55 9 87 14 120 21 19 3 42 7 50 9 27 3 135 27 150 33
13 4 32 9 65 16 6 1 16 5 23 9 6 5 12 6 12 2 0 -3 16 1 35 9 19 8 35 13 35 11
0 -2 24 6 53 16 28 11 88 33 132 48 45 16 99 38 122 50 23 11 49 21 57 21 8 0
16 3 18 8 2 4 53 32 113 62 95 47 338 201 400 252 11 9 52 42 90 74 120 98
282 267 410 426 28 35 155 219 155 225 0 4 6 14 14 22 38 42 183 332 241 481
79 202 167 506 181 626 3 26 8 53 12 59 3 5 7 23 9 40 1 16 5 46 8 65 6 31 10
59 20 165 1 17 3 30 4 30 7 0 15 225 15 430 1 236 -7 396 -23 498 0 5 -599 7
-1330 5 -731 -2 -1327 -1 -1325 1 3 3 15 6 27 8 37 6 150 34 177 44 14 5 38
12 54 15 16 3 34 8 40 12 11 7 32 12 54 14 6 1 12 5 12 10 0 4 7 8 16 8 14 0
82 27 194 78 19 9 46 23 59 31 13 8 30 16 37 17 8 1 25 12 40 23 15 12 31 21
36 21 5 0 63 36 128 80 124 84 254 193 354 295 64 66 209 242 227 278 7 12 15
24 19 27 8 6 100 159 100 166 0 3 8 18 18 32 40 58 158 361 176 452 3 14 8 36
11 50 3 14 8 36 11 50 2 14 7 36 10 50 25 109 37 463 20 590 -11 78 -16 115
-21 140 -14 75 -28 137 -33 150 -7 19 -7 19 -16 60 -16 68 -99 276 -151 376
-60 117 -127 222 -199 314 -27 36 -55 71 -61 79 -16 22 -247 253 -280 281 -16
14 -59 47 -95 73 -36 27 -72 54 -80 61 -9 7 -22 15 -30 19 -8 4 -28 16 -45 27
-59 38 -192 110 -261 140 -38 17 -82 37 -99 45 -16 7 -55 21 -85 31 -30 9 -59
21 -64 25 -6 5 -20 9 -33 9 -13 0 -31 4 -41 9 -30 17 -191 51 -357 76 -66 10
-321 25 -328 19z m223 -1305 c150 -35 286 -108 406 -218 39 -37 92 -101 152
-186 47 -67 103 -218 120 -325 14 -91 5 -290 -17 -375 -30 -112 -121 -299
-153 -313 -5 -2 -8 -8 -8 -13 0 -6 -33 -43 -72 -82 -75 -75 -179 -150 -258
-185 -58 -26 -160 -63 -160 -58 0 2 -22 -2 -49 -9 -54 -14 -296 -18 -321 -5
-8 4 -31 10 -50 13 -64 10 -254 89 -280 117 -3 3 -18 14 -34 24 -30 19 -62 46
-125 107 -72 68 -201 276 -201 324 0 7 -4 16 -9 19 -9 6 -12 18 -34 151 -72
441 201 874 633 1002 47 13 119 27 160 30 41 3 76 7 78 8 9 8 146 -9 222 -26z"/>
</g>
</svg>
