<?xml version="1.0" standalone="no"?>
<!DOCTYPE svg PUBLIC "-//W3C//DTD SVG 20010904//EN"
 "http://www.w3.org/TR/2001/REC-SVG-20010904/DTD/svg10.dtd">
<svg version="1.0" xmlns="http://www.w3.org/2000/svg"
 width="916.000000pt" height="916.000000pt" viewBox="0 0 916.000000 916.000000"
 preserveAspectRatio="xMidYMid meet">
<metadata>
Created by potrace 1.14, written by Peter Selinger 2001-2017
</metadata>
<g transform="translate(0.000000,916.000000) scale(0.100000,-0.100000)"
fill="#000000" stroke="none">
<path d="M4893 9132 c-29 -3 -35 -9 -35 -32 0 -37 13 -184 17 -190 3 -4 7 -27
10 -49 8 -61 62 -224 103 -311 34 -72 114 -202 163 -265 26 -32 183 -190 215
-215 98 -77 263 -172 356 -206 85 -31 202 -64 247 -70 25 -3 66 -10 91 -14 48
-9 318 -6 360 4 14 4 41 9 60 12 19 2 67 14 105 26 39 11 76 21 83 21 6 0 12
4 12 9 0 4 8 8 17 8 34 0 240 111 328 177 50 37 124 102 165 144 75 76 190
226 190 248 0 6 5 11 10 11 6 0 10 7 10 15 0 8 5 15 10 15 6 0 9 3 8 8 -1 4
15 41 34 82 45 94 85 214 94 275 1 11 3 20 4 20 1 0 3 9 6 20 10 48 15 95 17
174 l2 83 -1325 2 c-729 0 -1340 0 -1357 -2z"/>
<path d="M4357 8074 c-1 -1 -40 -5 -87 -8 -47 -3 -94 -7 -105 -10 -11 -2 -42
-7 -68 -10 -27 -4 -59 -9 -70 -12 -12 -2 -38 -7 -57 -10 -19 -3 -38 -8 -42
-11 -5 -2 -17 -6 -28 -9 -11 -2 -28 -6 -39 -8 -52 -12 -168 -49 -178 -58 -7
-6 -13 -7 -13 -2 0 4 -5 3 -12 -4 -7 -7 -19 -12 -27 -12 -63 0 -436 -208 -591
-330 -205 -161 -411 -393 -535 -601 -99 -167 -194 -392 -231 -544 -28 -116
-34 -147 -29 -155 3 -5 1 -11 -4 -15 -5 -3 -10 -13 -9 -23 0 -16 -6 -74 -18
-157 -8 -52 -7 -316 1 -375 10 -78 16 -124 20 -145 2 -11 6 -37 9 -59 4 -21 8
-42 11 -46 3 -4 7 -24 11 -44 3 -21 14 -63 24 -94 11 -31 20 -65 20 -74 0 -10
5 -18 11 -18 5 0 8 -4 5 -8 -3 -5 2 -21 10 -36 7 -16 14 -33 14 -38 0 -11 81
-190 90 -198 3 -3 16 -27 30 -55 93 -186 311 -450 505 -611 72 -60 182 -144
188 -144 3 0 31 -18 63 -39 125 -83 400 -210 534 -246 3 -1 12 -4 20 -7 43
-16 188 -51 252 -61 10 -2 19 -5 22 -8 2 -2 -343 -5 -767 -7 -423 -1 -772 -4
-775 -6 -2 -3 11 -25 30 -50 18 -25 52 -74 76 -108 23 -35 84 -122 135 -194
51 -72 97 -138 102 -147 6 -8 62 -89 125 -179 132 -187 145 -206 162 -233 7
-11 16 -22 19 -25 3 -3 36 -50 75 -106 l69 -101 1340 -1 c737 0 1345 -1 1352
-1 7 -1 10 -7 8 -13 -2 -7 -6 -42 -9 -78 -9 -105 -27 -191 -63 -305 -27 -85
-81 -204 -117 -258 -14 -21 -26 -40 -26 -43 0 -4 -24 -38 -63 -89 -38 -51
-138 -154 -182 -190 -65 -52 -80 -64 -92 -75 -7 -5 -16 -10 -21 -10 -5 0 -17
-9 -27 -20 -10 -11 -22 -17 -26 -14 -5 3 -9 1 -9 -4 0 -19 -296 -153 -312
-140 -2 1 -12 -4 -24 -10 -11 -6 -32 -13 -45 -16 -13 -2 -46 -10 -74 -16 -122
-29 -161 -32 -365 -33 -169 0 -253 4 -320 18 -22 5 -75 14 -107 19 -7 1 -16 5
-19 9 -4 4 -17 7 -29 7 -34 0 -165 44 -227 76 -14 8 -31 14 -38 14 -7 0 -26
10 -43 22 -18 13 -32 21 -32 18 -1 -8 -128 68 -160 96 -15 13 -31 24 -35 24
-8 0 -177 164 -205 200 -65 83 -155 230 -155 254 0 7 -4 16 -9 21 -17 19 -67
185 -86 284 -2 13 -7 26 -11 30 -3 3 -341 6 -750 6 l-745 0 6 -55 c3 -30 7
-71 9 -90 5 -46 24 -164 37 -220 6 -25 12 -52 14 -60 38 -168 135 -412 236
-590 34 -60 164 -256 182 -275 7 -7 28 -31 47 -55 57 -70 69 -82 130 -145 84
-87 145 -143 230 -210 41 -33 77 -63 80 -66 12 -14 284 -189 303 -195 12 -4
24 -10 27 -14 5 -7 202 -104 275 -136 126 -54 338 -124 480 -159 137 -34 143
-35 180 -40 17 -3 41 -7 55 -10 14 -3 40 -8 59 -11 19 -2 47 -7 64 -9 27 -5
77 -11 172 -21 22 -2 90 -6 150 -8 61 -3 112 -6 115 -6 3 -1 39 -2 80 -2 160
0 454 24 570 47 14 3 42 7 63 10 59 8 283 62 377 92 47 15 87 27 90 28 8 1 98
36 165 63 478 193 916 541 1209 962 36 52 69 100 74 105 32 40 164 289 225
425 62 138 156 416 182 538 2 9 10 46 19 82 8 36 18 83 22 104 3 21 8 48 10
60 9 43 34 216 40 273 3 32 8 87 12 123 14 135 5 701 -12 805 -2 11 -4 23 -5
28 0 4 -600 7 -1332 7 -732 -1 -1334 1 -1336 4 -3 3 3 4 13 4 15 -1 80 11 149
28 134 32 410 138 505 193 8 5 59 34 112 65 94 54 260 173 324 232 17 16 40
36 50 45 97 82 283 306 373 449 135 216 252 524 290 765 25 159 33 423 17 552
-19 154 -22 174 -48 278 -31 126 -127 398 -147 415 -3 3 -21 35 -39 71 -34 68
-153 255 -190 299 -12 14 -25 30 -29 35 -48 64 -182 206 -263 279 -93 82 -276
212 -370 262 -30 16 -57 31 -60 34 -5 6 -120 63 -130 65 -3 0 -14 5 -25 11
-11 6 -47 21 -80 33 -33 13 -69 27 -80 31 -23 10 -136 45 -180 56 -16 4 -32 8
-35 9 -8 2 -112 25 -140 30 -68 14 -73 14 -235 31 -50 6 -304 12 -308 8z m234
-1289 c228 -31 463 -180 600 -380 65 -94 117 -216 145 -340 14 -62 13 -260 -1
-333 -17 -90 -56 -212 -67 -212 -4 0 -8 -7 -8 -15 0 -16 -69 -131 -105 -175
-25 -31 -124 -129 -154 -153 -57 -46 -219 -132 -266 -142 -5 -1 -28 -7 -50
-13 -77 -21 -101 -24 -215 -27 -74 -2 -140 2 -183 11 -79 17 -207 60 -221 74
-6 6 -18 10 -27 10 -10 0 -19 4 -21 8 -1 4 -24 20 -49 34 -48 28 -125 93 -169
142 -14 15 -33 37 -43 47 -37 40 -121 183 -133 224 -1 6 -12 35 -23 66 -67
185 -59 430 19 619 52 124 105 204 199 300 202 205 476 295 772 255z"/>
</g>
</svg>
